<svg id="Vrstva_1" data-name="Vrstva 1" xmlns="http://www.w3.org/2000/svg" viewBox="0 0 283.46457 71.1311"><defs><style>.cls-1{fill:#004f9f;}</style></defs><title>finette_aplikace_logo</title><path class="cls-1" d="M329.85884,185.80177a24.28985,24.28985,0,0,1-17.45672-7.13431c-4.86-4.73713-7.32383-10.94821-7.32383-18.46157,0-7.5856,2.49945-13.84359,7.42891-18.59949a24.84574,24.84574,0,0,1,17.86485-7.20749A22.83135,22.83135,0,0,1,347.142,141.1767c4.50163,4.49975,6.92039,10.42937,7.18872,17.62466l-.00094,2.01813H316.27964l2.72338-4.2014h29.202l-.13229-.93166c-.71212-5.02235-2.73494-8.99669-6.01031-11.81232a17.45972,17.45972,0,0,0-11.69035-4.25394,19.53655,19.53655,0,0,0-12.33773,4.33275,17.81709,17.81709,0,0,0-6.56386,10.967h-.02627l-.10508.70461a33.20139,33.20139,0,0,0-.34152,4.58138c0,.20829.00751.41188.01783.6136H311.007l.01032.8688a19.79156,19.79156,0,0,0,6.09756,13.716,18.25,18.25,0,0,0,12.744,5.17247c8.33149,0,14.27049-3.60562,17.66219-10.71929l5.39014,1.2638a23.15363,23.15363,0,0,1-8.6092,10.67707A25.86553,25.86553,0,0,1,329.85884,185.80177Z" transform="translate(-70.86614 -114.67067)"/><path class="cls-1" d="M291.25735,185.80177c-4.87974,0-8.78747-1.41954-11.61436-4.2211-2.82454-2.78748-4.25581-6.84439-4.25581-12.0572V120.23322h6.23923V135.6327h18.01966l-2.72338,4.91164H281.62641V169.0065a11.4903,11.4903,0,0,0,2.73119,8.08849,9.6626,9.6626,0,0,0,7.40827,2.97513,15.06149,15.06149,0,0,0,8.21984-2.65707l1.944,4.906A19.26242,19.26242,0,0,1,291.25735,185.80177Z" transform="translate(-70.86614 -114.67067)"/><path class="cls-1" d="M255.43851,185.80177c-4.87974,0-8.78606-1.41954-11.60967-4.22016-2.82642-2.78748-4.25863-6.84345-4.25863-12.05814V120.23322h6.24862V135.6327h18.01872l-2.72338,4.91164H245.81883V169.0065a11.5049,11.5049,0,0,0,2.726,8.08755,9.63943,9.63943,0,0,0,7.4078,2.97607,15.05982,15.05982,0,0,0,8.21327-2.658l1.94824,4.90788A19.27271,19.27271,0,0,1,255.43851,185.80177Z" transform="translate(-70.86614 -114.67067)"/><path class="cls-1" d="M203.40615,185.80177a24.25315,24.25315,0,0,1-17.44781-7.13431c-4.86379-4.739-7.32993-10.95009-7.32993-18.46157,0-7.58466,2.49945-13.84172,7.42844-18.59949a24.85218,24.85218,0,0,1,17.86157-7.20749,22.84244,22.84244,0,0,1,16.77416,6.77778c4.50163,4.50632,6.91992,10.43594,7.18825,17.62466l-.00047,2.01813H189.88231l2.72338-4.2014H221.75l-.13041-.93072c-.706-5.0261-2.72884-9.00139-6.01218-11.8142a17.43668,17.43668,0,0,0-11.68895-4.253,19.50743,19.50743,0,0,0-12.334,4.33275,17.97848,17.97848,0,0,0-6.69475,11.65376,32.51345,32.51345,0,0,0-.33729,4.59921l-.00047.26364c-.00094.40907-.00188.805.02064,1.21219a19.79054,19.79054,0,0,0,6.08912,13.72162,18.27006,18.27006,0,0,0,12.74446,5.1734c8.33149,0,14.271-3.60562,17.6636-10.71929l5.38638,1.2638a23.13967,23.13967,0,0,1-8.60639,10.67707A25.85731,25.85731,0,0,1,203.40615,185.80177Z" transform="translate(-70.86614 -114.67067)"/><path class="cls-1" d="M125.13455,135.74377h6.26752v8.72938a26.20127,26.20127,0,0,1,8.32687-7.49824,20.46008,20.46008,0,0,1,9.93816-2.48507,17.27423,17.27423,0,0,1,9.69219,2.77534,16.54107,16.54107,0,0,1,6.24516,7.4763q2.01442,4.701,2.01421,14.63869v25.07007h-6.2671v-23.2339q0-8.4159-.69742-11.23723a12.34494,12.34494,0,0,0-4.179-7.27462,12.621,12.621,0,0,0-8.05854-2.4395,15.45715,15.45715,0,0,0-10.18667,3.76009,17.61564,17.61564,0,0,0-5.93252,9.31162q-.89614,3.62634-.8953,13.25144v17.86211h-6.26752Z" transform="translate(-70.86614 -114.67067)"/><rect class="cls-1" x="33.28823" y="21.0731" width="6.26752" height="48.70648"/><path class="cls-1" d="M95.439,114.67067a16.62849,16.62849,0,0,0-16.60958,16.60948v4.48125H74.17791l-3.31176,5.4146h7.96328v43.27424h6.26531l.0349-43.27424h9.92519v-5.4146h-9.935v-4.48125h-.00055a10.33158,10.33158,0,0,1,10.3197-10.32h1.648v-6.28947Z" transform="translate(-70.86614 -114.67067)"/></svg>