<svg id="Vrstva_1" data-name="Vrstva 1" xmlns="http://www.w3.org/2000/svg" xmlns:xlink="http://www.w3.org/1999/xlink" viewBox="0 0 621.7 165"><defs><style>.cls-1{fill:none;}.cls-2{clip-path:url(#clip-path);}.cls-3{fill:url(#Nepojmenovaný_přechod);}</style><clipPath id="clip-path" transform="translate(-113.26 -113.26)"><path class="cls-1" d="M190.14,275.35H204.7V162.18H190.14Zm75-110.31q-10.61,5.77-19.35,17.42V162.18H231.27V275.35h14.56v-41.5q0-22.36,2.08-30.79a40.94,40.94,0,0,1,13.78-21.64,35.92,35.92,0,0,1,23.67-8.74q11.55,0,18.73,5.67t9.71,16.9q1.62,6.55,1.62,26.11v54H330V217.1q0-23.09-4.68-34a38.42,38.42,0,0,0-14.51-17.37,40.13,40.13,0,0,0-22.52-6.45A47.54,47.54,0,0,0,265.18,165m94.53,11.77q-16.6,17.55-16.59,42.06t16.49,42q16.49,17.44,41.85,17.44,35.51,0,53.69-33.82l-12.26-6.34Q428.71,264.95,400.18,265a39.8,39.8,0,0,1-29.48-12.36c-8.1-8.24-12.39-19-12.78-32.57v-.09a54.93,54.93,0,0,1,1.46-12.47c6.69-24.16,22.12-34.43,41.44-34.24a44.15,44.15,0,0,1,27.26,9.09q11.84,9.09,14.79,25.15H369.29v12.47h89.64q-.64-28.1-17.22-44.38t-41-16.27q-24.41,0-41,17.54m276,0q-16.6,17.55-16.59,42.06t16.48,42q16.49,17.44,41.85,17.44,35.5,0,53.69-33.82l-12.26-6.34Q704.74,264.95,676.2,265a39.8,39.8,0,0,1-29.48-12.36c-8.1-8.24-12.39-19-12.78-32.57,0,0,0-.07,0-.09a54.87,54.87,0,0,1,1.47-12.47c6.69-24.16,22.12-34.43,41.44-34.24a44.16,44.16,0,0,1,27.26,9.09q11.84,9.09,14.79,25.15H645.32v12.47H735q-.64-28.1-17.22-44.38t-41-16.27q-24.41,0-41,17.54m-143.8-56.65v42H472.07v12.59h19.87V275.35h14.56V174.77h23.09V162.18H506.49v-42Zm74.12,0v42H546.19v12.59h19.87V275.35h14.56V174.77h23.09V162.18H580.61v-42Zm-397.59-6.9a38.65,38.65,0,0,0-38.61,38.6v10.42H113.26v12.58h16.59V275.45h14.56l.08-100.58h23.07V162.28H144.48V151.87h0a24,24,0,0,1,24-24h3.83V113.26Z"/></clipPath><linearGradient id="Nepojmenovaný_přechod" y1="391.53" x2="1" y2="391.53" gradientTransform="matrix(621.7, 0, 0, -621.7, 0, 243493.91)" gradientUnits="userSpaceOnUse"><stop offset="0" stop-color="#163554"/><stop offset="0.13" stop-color="#174667"/><stop offset="0.73" stop-color="#1c8cb5"/><stop offset="1" stop-color="#1ea8d4"/></linearGradient></defs><title>logo</title><g class="cls-2"><rect class="cls-3" width="621.7" height="165"/></g></svg>